<?xml version="1.0" encoding="UTF-8"?>
<!DOCTYPE svg PUBLIC "-//W3C//DTD SVG 1.1//EN" "http://www.w3.org/Graphics/SVG/1.1/DTD/svg11.dtd">
<!-- Creator: CorelDRAW 2017 -->
<svg xmlns="http://www.w3.org/2000/svg" xml:space="preserve" width="45.4935mm" height="41.4533mm" version="1.1" style="shape-rendering:geometricPrecision; text-rendering:geometricPrecision; image-rendering:optimizeQuality; fill-rule:evenodd; clip-rule:evenodd"
viewBox="0 0 4549.36 4145.34"
 xmlns:xlink="http://www.w3.org/1999/xlink">
 <defs>
  <style type="text/css">
   <![CDATA[
    .fil26 {fill:#FEFEFE;fill-rule:nonzero}
    .fil1 {fill:#F1F1F1;fill-rule:nonzero}
    .fil25 {fill:#EDEDED;fill-rule:nonzero}
    .fil0 {fill:#DDDDDC;fill-rule:nonzero}
    .fil13 {fill:#E3640E;fill-rule:nonzero}
    .fil16 {fill:#057193;fill-rule:nonzero}
    .fil18 {fill:#444447;fill-rule:nonzero}
    .fil21 {fill:#49B4D6;fill-rule:nonzero}
    .fil10 {fill:#6A7D7A;fill-rule:nonzero}
    .fil8 {fill:#728987;fill-rule:nonzero}
    .fil9 {fill:#879B9A;fill-rule:nonzero}
    .fil6 {fill:#97ABAD;fill-rule:nonzero}
    .fil20 {fill:#ACB5B4;fill-rule:nonzero}
    .fil15 {fill:#B4C2B1;fill-rule:nonzero}
    .fil4 {fill:#C0CBCC;fill-rule:nonzero}
    .fil19 {fill:#C3CBCA;fill-rule:nonzero}
    .fil3 {fill:#E1E7E8;fill-rule:nonzero}
    .fil2 {fill:#E7EBEC;fill-rule:nonzero}
    .fil12 {fill:#ED701B;fill-rule:nonzero}
    .fil14 {fill:#EFAA3A;fill-rule:nonzero}
    .fil23 {fill:#F77E2D;fill-rule:nonzero}
    .fil11 {fill:#F98D3D;fill-rule:nonzero}
    .fil24 {fill:#FB912C;fill-rule:nonzero}
    .fil17 {fill:#FDA63A;fill-rule:nonzero}
    .fil22 {fill:#FF9F50;fill-rule:nonzero}
    .fil7 {fill:#FFBF4D;fill-rule:nonzero}
    .fil5 {fill:white;fill-rule:nonzero}
   ]]>
  </style>
     <clipPath id="id0" style="clip-rule:nonzero">
      <path d="M1785.63 3535.57l-24.1 0 0 48.19 24.1 -48.19zm317.91 0l-176.71 0 -78.21 157.33 177.13 0 77.79 -157.33zm318.33 0l-177.13 0 -77.79 157.33 176.71 0 78.21 -157.33zm317.91 0l-176.71 0 -78.21 157.33 177.13 0 77.79 -157.33zm318.33 0l-177.13 0 -77.79 157.33 176.71 0 78.21 -157.33zm180.52 0l-39.74 0 -77.79 157.33 117.53 0 0 -157.33 0 0z"/>
     </clipPath>
     <clipPath id="id1" style="clip-rule:nonzero">
      <path d="M1926.77 3535.57l-141.21 0 -23.88 48.19 0 109.14 87.03 0 78.06 -157.33 0 0z"/>
     </clipPath>
     <clipPath id="id2" style="clip-rule:nonzero">
      <path d="M2244.83 3535.57l-141.2 0 -77.99 157.33 141.14 0 78.05 -157.33 0 0z"/>
     </clipPath>
     <clipPath id="id3" style="clip-rule:nonzero">
      <path d="M2562.96 3535.57l-141.2 0 -78.05 157.33 141.2 0 78.05 -157.33 0 0z"/>
     </clipPath>
     <clipPath id="id4" style="clip-rule:nonzero">
      <path d="M2881.02 3535.57l-141.2 0 -77.99 157.33 141.14 0 78.05 -157.33 0 0z"/>
     </clipPath>
     <clipPath id="id5" style="clip-rule:nonzero">
      <path d="M3199.07 3535.57l-141.13 0 -78.05 157.33 141.13 0 78.05 -157.33 0 0z"/>
     </clipPath>
 </defs>
 <g id="_x0020_3">
  <metadata id="CorelCorpID_0Corel-Layer"/>
  <g id="_630523840">
   <polygon class="fil0" points="1513.89,1725.3 1537.54,1725.3 1537.54,0 1513.89,0 "/>
   <polygon class="fil0" points="3209.43,1990.33 3233.08,1990.33 3233.08,0 3209.43,0 "/>
   <g>
    <path class="fil1" d="M4413.49 4145.34c73.22,0 132.98,-58.7 134.09,-131.92 5.62,-364.91 35.01,-903.16 -652.21,-1052.02 -556.13,-120.47 -226.4,-1108.79 -1724.13,-1044.94 -1075.13,45.84 -789.51,952.06 -1625.45,1027.51 -556.24,50.22 -561.05,753.74 -539.68,1076.08 4.68,70.52 63.17,125.29 133.83,125.29l4273.56 0z"/>
    <path class="fil2" d="M3320.99 2283.32l-79.78 683.52c58.52,66.72 129.92,116.53 230.02,138.21 679.9,147.28 658.37,675.67 652.41,1040.29l289.85 0c73.22,0 132.98,-58.7 134.09,-131.92 0.71,-45.62 1.78,-93.94 1.78,-143.87 -0.02,-349.52 -52.67,-777.9 -653.99,-908.15 -310.08,-67.17 -344.79,-404.13 -574.38,-678.08z"/>
    <path class="fil3" d="M3230.8 1874.32l-1758.45 -205.26c-75.14,-8.76 -143.17,45.04 -151.94,120.19l-131.25 1124.45c-8.77,75.15 45.04,143.18 120.2,151.95l1758.44 205.25c75.15,8.77 143.18,-45.04 151.94,-120.19l131.25 -1124.44c8.78,-75.15 -45.03,-143.19 -120.19,-151.95z"/>
    <path class="fil4" d="M3338.01 2137.57l12.98 -111.3c8.78,-75.15 -45.03,-143.19 -120.19,-151.95l-1758.45 -205.26c-75.14,-8.76 -143.17,45.05 -151.94,120.19l-12.99 111.31 2030.59 237.01z"/>
    <path class="fil5" d="M1514.7 1824.45c-2.36,20.19 -20.64,34.66 -40.83,32.31 -20.2,-2.36 -34.66,-20.65 -32.3,-40.85 2.36,-20.19 20.64,-34.65 40.83,-32.29 20.2,2.35 34.66,20.64 32.3,40.83z"/>
    <path class="fil6" d="M1691.09 1845.04c-2.37,20.2 -20.64,34.66 -40.83,32.3 -20.21,-2.36 -34.67,-20.64 -32.31,-40.84 2.36,-20.19 20.64,-34.65 40.84,-32.3 20.19,2.37 34.65,20.65 32.3,40.84z"/>
    <path class="fil7" d="M1873.93 1866.38c-2.36,20.2 -20.64,34.66 -40.84,32.3 -20.19,-2.36 -34.66,-20.63 -32.29,-40.84 2.34,-20.19 20.63,-34.65 40.83,-32.29 20.19,2.35 34.65,20.63 32.3,40.83z"/>
    <path class="fil8" d="M1166.54 3147.19c0,0 -23.76,105.3 -19.8,212.98 3.55,96.4 -7.91,730.05 -7.91,730.05l77.39 0c0,0 110.18,-496.28 114.3,-535.47 4.11,-39.19 59.53,-431.11 59.53,-431.11l-223.51 23.55z"/>
    <path class="fil9" d="M1218.01 3118.29c0,0 17.81,135.4 48.1,231.59 30.28,96.19 179.12,740.34 179.12,740.34l77.41 0c0,0 -14.26,-496.28 -19.6,-535.47 -5.34,-39.19 -44.54,-431.11 -44.54,-431.11l-240.49 -5.35z"/>
    <path class="fil9" d="M1451.56 4090.09l0 54.01 147.33 0c8.37,0 11.64,-10.84 4.66,-15.48 -21.54,-14.35 -56.04,-34.12 -88.12,-38.53l-63.87 0z"/>
    <path class="fil9" d="M1142.77 4090.09l0 54.01 147.33 0c8.37,0 11.64,-10.84 4.68,-15.48 -21.55,-14.35 -56.06,-34.12 -88.15,-38.53l-63.86 0z"/>
    <path class="fil8" d="M1408.6 2488.49c0,0 50.67,-76.95 -7.51,-84.46 -44.67,-5.76 -63.05,7.55 -63.05,7.55 0,0 -51.43,-5.67 -79.59,18.73 -19.28,16.72 -90.08,146.39 24.41,193.31 114.48,46.91 90.08,-73.2 90.08,-73.2l35.66 -61.93z"/>
    <path class="fil10" d="M1401.09 2404.03c-44.67,-5.76 -63.05,7.55 -63.05,7.55 0,0 -51.43,-5.67 -79.59,18.73 -19.28,16.72 -90.08,146.39 24.41,193.31 53.81,22.05 76.93,7.19 86.33,-14.74 -108.62,30.54 -120.41,-100.35 -102.49,-137.62 18.2,-37.84 61.88,-20.38 61.88,-20.38 17.07,-42.99 72.74,-38.33 95.69,-34.98 -4.18,-5.98 -11.44,-10.35 -23.18,-11.87z"/>
    <path class="fil11" d="M1337.28 2526.03c0,0 -15.01,-15.03 -26.28,0 -11.26,15.01 -3.75,48.79 15.02,50.67 0,0 -5.63,48.8 -43.16,46.92l0 39.41 88.2 0 0 -30.03c0,0 54.42,-22.52 52.55,-67.57 -1.88,-45.03 -15.01,-76.94 -15.01,-76.94 0,0 -30.03,33.79 -71.32,37.54z"/>
    <path class="fil12" d="M1350.78 2645.62c8.73,3.64 7.2,9.15 7.59,17.41l12.69 0 0 -30.03c0,0 -21.37,6.79 -52.68,-11.04 0,0 18.22,17.75 32.4,23.66z"/>
    <path class="fil13" d="M1636 2422.23l37.85 4.07 6.51 -60.56 56.23 6.05 -6.51 60.56 37.86 4.07 16.62 -154.66 -37.85 -4.07 -6.65 61.86 -56.24 -6.04 6.65 -61.87 -37.85 -4.07 -16.62 154.66zm182.83 19.66l99.93 10.74 3.48 -32.44 -62.07 -6.68 3.14 -29.2 47.15 5.07 3.49 -32.44 -47.15 -5.07 3.02 -28.13 59.05 6.35 3.49 -32.44 -96.9 -10.42 -16.63 154.66zm176.57 18.98l37.85 4.07 13.13 -122.22 46.94 5.05 3.49 -32.45 -131.73 -14.16 -3.49 32.45 46.94 5.04 -13.13 122.22zm241.23 25.93l37.85 4.07 13.14 -122.22 46.93 5.05 3.49 -32.44 -131.73 -14.16 -3.49 32.44 46.94 5.04 -13.13 122.22zm93.06 10l38.93 4.19 12.79 -31.44 48.23 5.18 6.04 33.47 38.93 4.18 -35.94 -160.31 -39.8 -4.28 -69.18 149.01zm63.84 -56.59l12.1 -29.11c3.86,-9.43 9.14,-25.93 9.14,-25.93l0.43 0.04c0,0 1.64,17.25 3.41,27.29l5.43 30.99 -30.51 -3.28zm115.1 75.83l37.85 4.07 6.74 -62.73 15.57 1.67 25.92 66.24 42.4 4.56 -35.5 -84.99 0.05 -0.44 49.7 -69.48 -40.67 -4.37 -38.43 56.26 -15.57 -1.67 6.42 -59.71 -37.86 -4.07 -16.62 154.66zm159.88 -62.02c-4.88,45.42 25.48,84.57 72.21,89.59 46.72,5.03 84.71,-26.78 89.59,-72.19 4.77,-44.35 -25.69,-82.63 -72.41,-87.65 -46.73,-5.03 -84.62,25.91 -89.39,70.25zm39.16 4.21c2.72,-25.31 23.37,-42.34 46.51,-39.85 23.14,2.48 39.7,23.51 36.98,48.83 -2.84,26.39 -23.58,44.28 -46.72,41.79 -23.15,-2.48 -39.61,-24.38 -36.77,-50.77zm241.53 -58.28c21.84,2.35 42.16,-7.5 44.44,-28.69l0.26 -2.39 -27.47 -2.95 -0.28 2.6c-0.96,8.86 -8.51,11.99 -14.79,11.32 -6.48,-0.7 -12.99,-5.34 -12.04,-14.21l0.28 -2.59 -27.68 -2.98 -0.26 2.39c-2.27,21.18 15.48,35.13 37.54,37.5l0 0zm-84.85 154.33l38.07 4.09 50.78 -67.4c7.15,-9.52 15.82,-25 15.82,-25l0.43 0.05c0,0 -3.52,16.48 -4.56,26.21l-7.75 72.02 37.86 4.07 16.62 -154.66 -38.29 -4.11 -50.59 67.64c-7.16,9.52 -15.82,24.99 -15.82,24.99l-0.43 -0.05c0,0 3.52,-16.46 4.57,-26.2l7.77 -72.24 -37.86 -4.07 -16.62 154.66zm-1255.36 41.81c-4.93,45.86 22.73,83.62 72.48,88.97 28.34,3.05 49.95,-6.66 65.09,-19.26l-16.49 -29.78c-11.73,9.46 -27.78,16.27 -43.14,14.62 -29.85,-3.21 -41.16,-28.28 -38.69,-51.2 2.39,-22.28 17.5,-42.76 48.43,-39.43 13.84,1.49 28,10.23 37.02,19.95l20.59 -26.67c-13.53,-16.55 -34.85,-25.85 -55.62,-28.08 -47.81,-5.14 -84.84,25.89 -89.67,70.88zm206.28 100.73l37.86 4.07 13.13 -122.22 46.94 5.05 3.49 -32.45 -131.73 -14.16 -3.49 32.45 46.94 5.04 -13.14 122.22zm122.27 13.14l37.85 4.07 5.14 -47.8 26.39 2.83c30.07,3.23 52.82,-17.07 56.16,-48.22 3.35,-31.15 -14.61,-55.4 -44.67,-58.63l-64.24 -6.91 -16.63 154.66zm46.48 -76.18l4.51 -41.97 19.25 2.07c12.55,1.35 18.12,10.49 16.8,22.82 -1.33,12.33 -8.76,20.5 -21.96,19.08l-18.6 -2zm82.92 90.09l38.94 4.19 12.78 -31.45 48.24 5.19 6.03 33.47 38.94 4.18 -35.94 -160.31 -39.8 -4.28 -69.19 149.01zm63.85 -56.59l12.1 -29.11c3.86,-9.43 9.13,-25.93 9.13,-25.93l0.43 0.04c0,0 1.65,17.25 3.42,27.28l5.42 31 -30.5 -3.28zm115.09 75.83l37.86 4.07 6.51 -60.56 56.23 6.04 -6.51 60.56 37.85 4.07 16.63 -154.66 -37.85 -4.07 -6.65 61.87 -56.24 -6.05 6.65 -61.86 -37.85 -4.07 -16.63 154.66zm182.84 19.65l38.07 4.09 50.79 -67.39c7.14,-9.52 15.81,-25.01 15.81,-25.01l0.44 0.05c0,0 -3.53,16.48 -4.57,26.21l-7.74 72.03 37.85 4.07 16.62 -154.66 -38.29 -4.12 -50.59 67.64c-7.15,9.52 -15.82,24.99 -15.82,24.99l-0.43 -0.04c0,0 3.53,-16.47 4.57,-26.2l7.77 -72.25 -37.85 -4.07 -16.63 154.66zm181.53 19.52l114.86 12.34 -3.25 30.29 33.52 3.6 6.72 -62.51 -19.04 -2.04 13.16 -122.44 -37.85 -4.07 -13.16 122.44 -53.64 -5.77 13.16 -122.43 -37.85 -4.07 -16.63 154.66zm319.76 34.37l37.85 4.07 16.63 -154.66 -37.85 -4.07 -16.63 154.66zm-129.78 -13.95l62.07 6.67c30.07,3.23 52.77,-16.64 56.12,-47.79 3.35,-31.14 -14.56,-55.83 -44.63,-59.06l-24.22 -2.61 5.14 -47.8 -37.85 -4.07 -16.63 154.66zm41.34 -28.38l4.51 -41.96 16.44 1.76c13.19,1.42 18.73,10.99 17.4,23.32 -1.32,12.33 -8.72,20.07 -21.27,18.72l-17.08 -1.84z"/>
    <path class="fil11" d="M1368.83 2454.19c0,0 -45.72,-18.21 -51.07,-4.55 -3.49,8.94 5.39,16.64 17.6,24.43l-10.75 1.77c-2.4,0.4 -3.27,3.45 -1.38,4.97 3.01,2.42 11.29,4.05 28.59,4.65l17.01 -31.27z"/>
    <path class="fil7" d="M1695.31 2568.72c-87.17,-64.62 -325.29,-116.28 -325.29,-116.28l-19.63 35.76c0,0 216.17,83.77 201.9,96.26 -8.37,7.37 -114.02,55.76 -149.78,72.06 -7.68,3.47 -16.05,5.19 -24.58,5.03l-109.44 -0.62c0,0 -78.96,-9.38 -141.09,61.98 -55.53,63.91 -149.93,211.89 -149.93,211.89l159 233.86 17.61 25.83 0.16 -0.31 -0.16 2.17c0,0 5.67,0.62 15.66,1.55 51.12,4.73 214.94,17.68 301.65,-0.7l2.41 -0.54 -4.11 -383.62c138.45,-109.61 204.53,-194.22 228.19,-220.83 6.2,-7.05 5.03,-17.84 -2.57,-23.49zm-533.55 523.15l-15.52 -33.89 -49.39 -107.97 81.97 -91.84 -14.73 201.52 -2.33 32.18z"/>
    <polygon class="fil14" points="1146.24,3057.98 1161.76,3091.87 1154.24,3194.18 1154.08,3194.49 1136.47,3168.66 "/>
    <path class="fil15" d="M1471.39 3197.2c-1.77,0.38 -3.57,0.74 -5.4,1.08l0 0.01c1.83,-0.35 3.64,-0.71 5.4,-1.09z"/>
    <path class="fil16" d="M1465.08 3198.46c-0.01,0 -0.02,0 -0.04,0 0.02,0 0.03,0 0.04,0zm0.59 -0.11c-0.09,0.02 -0.17,0.03 -0.25,0.05 0.08,-0.02 0.16,-0.03 0.25,-0.05zm0.32 -0.07c-0.06,0.02 -0.13,0.03 -0.2,0.05 0.07,-0.02 0.14,-0.03 0.2,-0.04l0 -0.01z"/>
    <path class="fil17" d="M1695.31 2568.72c0,0 -109.43,119.3 -262.61,230.52 -14.73,10.7 -11.01,105.57 -14.64,164.89 -6.09,99.34 -12.02,185.3 -7.64,240.72 19.8,-1.3 38.39,-3.35 54.62,-6.39 0.02,0 0.03,0 0.04,0 0.11,-0.02 0.23,-0.04 0.34,-0.06 0.08,-0.02 0.16,-0.03 0.25,-0.05 0.04,-0.01 0.08,-0.02 0.12,-0.02 0.07,-0.02 0.14,-0.03 0.2,-0.05 1.83,-0.34 3.63,-0.7 5.4,-1.08l0 0 2.41 -0.54 -4.11 -383.62 0 0c138.45,-109.61 204.53,-194.22 228.19,-220.83 2.68,-3.05 3.99,-6.82 3.99,-10.56 -0.01,-4.89 -2.25,-9.73 -6.56,-12.93l0 0z"/>
    <path class="fil8" d="M1503.04 3554.75c-3.86,-28.28 -25.33,-240.19 -36.99,-356.03l-55.63 6.13c0,0 81.14,667.08 86.47,885.37l25.75 0c0,0 -14.26,-496.28 -19.6,-535.47z"/>
    <path class="fil18" d="M1146.4 2536.97l-16.77 -30.07c8.41,-15.85 13.21,-33.91 13.21,-53.1 0,-62.71 -50.84,-113.56 -113.56,-113.56 -62.72,0 -113.56,50.85 -113.56,113.56 0,62.72 50.84,113.56 113.56,113.56 31.57,0 60.12,-12.91 80.7,-33.71l36.42 3.32z"/>
    <path class="fil19" d="M711 3902.43c0,0 -23.85,-22.27 -7.84,-106.79 16.01,-84.52 56.62,-165.69 36.7,-257.38 -19.92,-91.69 -176.16,-322.88 -176.69,-338.26 -0.52,-15.37 -48.2,268.96 32.6,380.97 80.8,112 90.52,150.87 86.93,209.76 -3.59,58.91 0.83,106.34 9.69,120.03l18.61 -8.33z"/>
    <path class="fil20" d="M696.21 3732.44c-9.38,37.71 -15.06,132.24 -0.04,154.87 1.4,2.12 3.41,0.92 5.92,-2.99 -4.58,-15.63 -7.58,-43.02 1.07,-88.68 16.01,-84.52 56.62,-165.69 36.7,-257.38 -19.92,-91.69 -176.16,-322.88 -176.69,-338.26 0,0 23.54,192.63 102.83,325.21 56.77,94.92 39.61,169.53 30.21,207.23z"/>
    <path class="fil19" d="M739.5 3896.57c0,0 -45.9,-114.6 31.89,-213.83 77.78,-99.22 202.19,-226.63 204.67,-277.1 0,0 31.97,239.64 -69.28,307.47 -101.25,67.83 -172.26,78.66 -154.71,183.03l-12.57 0.43z"/>
    <path class="fil20" d="M848.78 3664.93c-112.9,82.18 -122.13,176.84 -104.61,220.75 1.36,3.41 3.94,5.5 7.34,6.61 -15.13,-100.74 55.3,-112.2 155.27,-179.18 101.25,-67.83 69.28,-307.47 69.28,-307.47 0,0 -14.38,177.12 -127.28,259.29z"/>
    <path class="fil19" d="M664 3899.14c0,0 14.73,-60.69 6.9,-126.19 -7.83,-65.51 -76.27,-102.37 -140.22,-171.56 -32.89,-35.6 -42.62,-223.88 -22.23,-241.37 0,0 -112.89,136.81 -95.48,236.98 17.42,100.18 201.58,165.27 218.62,213.68 17.06,48.4 15.64,89.04 15.64,89.04l16.77 -0.58z"/>
    <path class="fil20" d="M470.3 3413.87c-37.31,101.04 0.93,223.41 124.88,299.42 91.25,55.97 62.19,172.32 62.19,172.32l14.91 -45.9c1.32,-19.86 1.46,-42.97 -1.38,-66.76 -7.83,-65.51 -76.27,-102.37 -140.22,-171.56 -31.73,-34.34 -41.89,-210.64 -24.28,-238.82 -5.17,6.51 -19.78,25.44 -36.1,51.3z"/>
    <path class="fil21" d="M506.4 3362.57c1.28,-1.61 2.05,-2.55 2.05,-2.55 -0.72,0.62 -1.4,1.51 -2.05,2.55z"/>
    <path class="fil19" d="M763.12 3891.56c0,0 26.45,-98.17 91.9,-111.39 65.44,-13.22 140.59,-109.92 144.65,-128.88 0,0 -11.04,182.37 -236.55,240.27z"/>
    <path class="fil20" d="M851.28 3812.62c-40.1,20.05 -56.77,47.02 -62.69,71.5 200.78,-64.57 211.08,-232.83 211.08,-232.83 -0.8,3.75 -4.47,10.6 -10.2,19.18 -19.69,34.5 -67.37,106.74 -138.19,142.15z"/>
    <path class="fil7" d="M904.73 3855.41l-342.27 0 40.65 255.63c3.08,19.39 19.8,33.67 39.43,33.67l182.11 0c19.63,0 36.35,-14.28 39.43,-33.67l40.65 -255.63z"/>
    <polygon class="fil22" points="898,3897.7 904.73,3855.41 562.46,3855.41 569.18,3897.7 "/>
    <path class="fil22" d="M821.81 3855.41l-40.64 255.63c-3.09,19.39 -19.81,33.66 -39.44,33.66l82.92 0c19.63,0 36.35,-14.27 39.43,-33.66l40.65 -255.63 -82.92 0z"/>
    <polygon class="fil7" points="1718.55,3714.03 3265.47,3714.03 3265.47,3399.51 1718.55,3399.51 "/>
    <path class="fil17" d="M1956.38 3475.85l176.9 0 37.87 -76.34 -176.9 0 -37.87 76.34zm318.09 0l176.89 0 37.88 -76.34 -176.91 0 -37.86 76.34zm318.09 0l176.9 0 37.87 -76.34 -176.91 0 -37.86 76.34zm318.03 0l176.97 0 37.86 -76.34 -176.98 0 -37.85 76.34zm318.07 0l36.8 0 0 -74.19 -36.8 74.19zm36.8 -74.21l0 -2.13 -139.84 0 139.84 2.13z"/>
    <polygon class="fil17" points="1853.06,3399.51 1718.55,3399.51 1718.55,3475.85 1815.19,3475.85 "/>
    <polygon class="fil23" points="1853.06,3399.51 1994.25,3399.51 1956.41,3475.88 1815.14,3475.88 "/>
    <polygon class="fil23" points="2171.15,3399.51 2312.34,3399.51 2274.49,3475.88 2133.31,3475.88 "/>
    <polygon class="fil23" points="2489.24,3399.51 2630.43,3399.51 2592.59,3475.88 2451.4,3475.88 "/>
    <polygon class="fil23" points="2807.34,3399.51 2948.45,3399.51 2910.6,3475.88 2769.49,3475.88 "/>
    <polygon class="fil23" points="3265.48,3399.51 3265.48,3401.64 3228.62,3475.88 3087.59,3475.88 3125.43,3399.51 "/>
    <polygon class="fil19" points="1911.12,4144.1 2020.16,4144.1 2020.16,3714.06 1911.12,3714.06 "/>
    <polygon class="fil20" points="1995.39,4144.1 2020.16,4144.1 2020.16,3714.06 1995.39,3714.06 "/>
    <polygon class="fil19" points="2972.34,4144.1 3081.39,4144.1 3081.39,3714.06 2972.34,3714.06 "/>
    <polygon class="fil20" points="3049.15,4144.1 3081.39,4144.1 3081.39,3714.06 3049.15,3714.06 "/>
    <polygon class="fil20" points="1911.12,3767.88 2020.16,3767.88 2020.16,3713.72 1911.12,3713.72 "/>
    <polygon class="fil20" points="2972.34,3767.88 3081.39,3767.88 3081.39,3713.72 2972.34,3713.72 "/>
    <polygon class="fil19" points="1911.12,3399.2 2020.16,3399.2 2020.16,3350.38 1911.12,3350.38 "/>
    <polygon class="fil20" points="1995.39,3399.2 2020.16,3399.2 2020.16,3350.38 1995.39,3350.38 "/>
    <polygon class="fil19" points="2972.34,3399.2 3081.39,3399.2 3081.39,3350.38 2972.34,3350.38 "/>
    <polygon class="fil20" points="3049.15,3399.2 3081.39,3399.2 3081.39,3350.38 3049.15,3350.38 "/>
    <polygon class="fil20" points="1911.12,3399.24 2020.16,3399.24 2020.16,3393.09 1911.12,3393.09 "/>
    <polygon class="fil21" points="2972.34,3399.24 3081.39,3399.24 3081.39,3393.09 2972.34,3393.09 "/>
    <polygon class="fil9" points="1994.25,3399.51 1838.24,3714.03 1718.55,3714.03 1718.55,3670.64 1853.06,3399.51 "/>
    <polygon class="fil9" points="2171.15,3399.51 2015.14,3714.03 2156.32,3714.03 2312.34,3399.51 "/>
    <polygon class="fil9" points="2630.43,3399.51 2474.43,3714.03 2333.25,3714.03 2489.25,3399.51 "/>
    <polygon class="fil9" points="2948.45,3399.51 2792.51,3714.03 2651.33,3714.03 2807.34,3399.51 "/>
    <polygon class="fil9" points="3125.43,3399.51 2969.43,3714.03 3110.54,3714.03 3265.48,3401.64 "/>
    <polygon class="fil8" points="1994.25,3399.51 1956.41,3475.88 1815.14,3475.88 1853.06,3399.51 "/>
    <polygon class="fil8" points="2312.34,3399.51 2274.49,3475.88 2133.31,3475.88 2171.15,3399.51 "/>
    <polygon class="fil8" points="2630.43,3399.51 2592.59,3475.88 2451.4,3475.88 2489.24,3399.51 "/>
    <polygon class="fil8" points="2948.45,3399.51 2910.6,3475.88 2769.49,3475.88 2807.34,3399.51 "/>
    <polygon class="fil8" points="3265.48,3401.64 3228.62,3475.88 3087.59,3475.88 3125.43,3399.51 "/>
    <g style="clip-path:url(#id0)">
     <image transform="matrix(42.2752 -0 -0 -4.87241 1754.77 3700.89)" x="0" y="0" width="35.28" height="35.28" xlink:href="no_page_Images\no_page_ImgID1.png"/>
    </g>
    <g style="clip-path:url(#id1)">
     <image transform="matrix(5.15901 -0 -0 -4.87241 1754.77 3700.89)" x="0" y="0" width="35.28" height="35.28" xlink:href="no_page_Images\no_page_ImgID2.png"/>
    </g>
    <g style="clip-path:url(#id2)">
     <image transform="matrix(6.59207 -0 -0 -4.87241 2017.67 3700.89)" x="0" y="0" width="35.28" height="35.28" xlink:href="no_page_Images\no_page_ImgID3.png"/>
    </g>
    <g style="clip-path:url(#id3)">
     <image transform="matrix(6.59207 -0 -0 -4.87241 2336.19 3700.89)" x="0" y="0" width="35.28" height="35.28" xlink:href="no_page_Images\no_page_ImgID4.png"/>
    </g>
    <g style="clip-path:url(#id4)">
     <image transform="matrix(6.59207 -0 -0 -4.87241 2654.71 3700.89)" x="0" y="0" width="35.28" height="35.28" xlink:href="no_page_Images\no_page_ImgID5.png"/>
    </g>
    <g style="clip-path:url(#id5)">
     <image transform="matrix(6.59207 -0 -0 -4.87241 2973.23 3700.89)" x="0" y="0" width="35.28" height="35.28" xlink:href="no_page_Images\no_page_ImgID6.png"/>
    </g>
    <path class="fil7" d="M2060.03 3282.12c0,-53.7 -43.53,-97.23 -97.23,-97.23 -53.69,0 -97.23,43.53 -97.23,97.23 0,53.7 43.54,97.23 97.23,97.23 53.7,0 97.23,-43.53 97.23,-97.23z"/>
    <path class="fil9" d="M2006.86 3282.12c0,-24.33 -19.73,-44.06 -44.06,-44.06 -24.34,0 -44.07,19.73 -44.07,44.06 0,24.33 19.73,44.06 44.07,44.06 24.33,0 44.06,-19.73 44.06,-44.06z"/>
    <path class="fil7" d="M3123.45 3282.12c0,-53.7 -43.52,-97.23 -97.23,-97.23 -53.7,0 -97.23,43.53 -97.23,97.23 0,53.7 43.53,97.23 97.23,97.23 53.71,0 97.23,-43.53 97.23,-97.23z"/>
    <path class="fil9" d="M3070.29 3282.12c0,-24.33 -19.74,-44.06 -44.07,-44.06 -24.34,0 -44.06,19.73 -44.06,44.06 0,24.33 19.72,44.06 44.06,44.06 24.33,0 44.07,-19.73 44.07,-44.06z"/>
    <path class="fil7" d="M3851.53 4110.78l-492.67 0 75.36 -182.67 0 -0.11 30.31 -73.71 8.35 -20.21 13.61 -32.89 2.78 -6.69 30.32 -73.71 5.56 -13.4 53.72 -130.41c9.69,-23.51 42.98,-23.51 52.67,0l53.7 130.41 5.58 13.4 30.3 73.71 2.79 6.69 13.6 32.89 8.35 20.21 30.31 73.71 0 0.11 75.36 182.67z"/>
    <path class="fil15" d="M3391.18 4032.45l-0.02 0 -12.98 31.49 0 0 13 -31.49zm428.12 0l-0.08 0 12.98 31.49 0.08 0 -12.98 -31.49z"/>
    <polygon class="fil17" points="3819.22,4032.45 3819.17,4032.45 3832.15,4063.91 3762.45,4063.91 3749.49,4032.45 3391.18,4032.45 3378.18,4063.94 3832.2,4063.94 "/>
    <polygon class="fil19" points="3319.5,4143.71 3883.76,4143.71 3883.76,4063.94 3319.5,4063.94 "/>
    <polygon class="fil20" points="3761.85,4143.71 3883.77,4143.71 3883.77,4063.94 3761.85,4063.94 "/>
    <path class="fil17" d="M3605.2 3559.39c-10.75,0 -21.49,5.87 -26.33,17.63l-8.46 20.62 45.14 109.78 5.58 13.41 30.3 73.71 2.79 6.7 13.61 32.89 8.34 20.2 30.31 73.72 0 0.09 43.01 104.31 69.68 0 -43 -104.31 0 -0.09 -30.31 -73.72 -8.35 -20.2 -13.6 -32.89 -2.79 -6.7 -30.3 -73.71 -5.58 -13.41 -53.7 -130.4c-4.84,-11.76 -15.6,-17.63 -26.34,-17.63z"/>
    <polygon class="fil24" points="3819.17,4032.45 3749.49,4032.45 3762.45,4063.91 3832.15,4063.91 "/>
    <polygon class="fil9" points="3721.12,3794.5 3489.27,3794.5 3519.59,3720.79 3690.82,3720.79 "/>
    <polygon class="fil9" points="3776.17,3928 3776.17,3928.11 3434.22,3928.11 3434.22,3928 3464.53,3854.29 3745.86,3854.29 "/>
    <polygon class="fil8" points="3721.12,3794.5 3651.43,3794.5 3621.13,3720.79 3690.82,3720.79 "/>
    <polygon class="fil8" points="3776.17,3928 3776.17,3928.11 3706.48,3928.11 3706.48,3928 3676.17,3854.29 3745.86,3854.29 "/>
    <path class="fil25" d="M711.14 2319.46c36.81,0 68.81,-26.72 73.78,-63.2 0.9,-6.54 1.36,-13.22 1.36,-20 0,-81.2 -65.83,-147.02 -147.03,-147.02 -3.33,0 -6.63,0.15 -9.9,0.36 -6.71,-80.07 -73.79,-142.97 -155.6,-142.97 -86.26,0 -156.19,69.92 -156.19,156.19 0,3.82 0.19,7.6 0.46,11.35 -24.48,-13.67 -53,-20.98 -83.35,-19.59 -78.45,3.61 -142.92,66.36 -148.47,144.69l-0.12 1.87c-2.52,42.59 31.92,78.32 74.6,78.32l550.46 0z"/>
    <path class="fil25" d="M4220.05 2434.95c116.26,0 122.7,-174.98 6.57,-180.61 -3.17,-0.16 -6.37,-0.24 -9.58,-0.24 -20.72,0 -40.68,3.28 -59.41,9.3 -15.54,-94.71 -97.72,-166.97 -196.84,-166.97 -101.28,0 -184.87,75.48 -197.74,173.26 -24.03,-11.51 -50.95,-17.98 -79.38,-17.98 -15.88,0 -31.29,2.01 -45.99,5.81 -101.67,26.17 -80.32,177.43 24.65,177.43l557.72 0z"/>
    <path class="fil25" d="M2823.82 1572.82c116.23,0 122.67,-174.92 6.57,-180.56 -3.17,-0.15 -6.35,-0.23 -9.56,-0.23 -20.73,0 -40.67,3.28 -59.41,9.3 -15.52,-94.69 -97.69,-166.94 -196.76,-166.94 -101.27,0 -184.84,75.47 -197.7,173.22 -24.01,-11.51 -50.93,-17.97 -79.35,-17.97 -15.87,0 -31.29,2.01 -45.98,5.8 -101.63,26.17 -80.3,177.38 24.65,177.38l557.54 0z"/>
    <path class="fil7" d="M1251.93 1617.48c0,-153.9 -124.75,-278.65 -278.65,-278.65 -153.89,0 -278.64,124.75 -278.64,278.65 0,153.9 124.75,278.65 278.64,278.65 153.9,0 278.65,-124.75 278.65,-278.65z"/>
    <path class="fil22" d="M975.58 1338.89c75.78,49.8 125.86,135.52 125.86,232.98 0,153.89 -124.76,278.65 -278.66,278.65l-2.29 -0.05c43.88,28.83 96.36,45.66 152.79,45.66 153.9,0 278.65,-124.75 278.65,-278.65 0,-153.13 -123.52,-277.36 -276.35,-278.59z"/>
    <path class="fil26" d="M970.46 2471.83l-3.31 7.65c0,0 3.13,2.17 7.23,2.17 4.94,0 10.36,-2.41 12.95,-9.34l12.71 -34.33 -11.39 0 -3.91 14.46c-0.42,1.68 -1.02,4.63 -1.02,4.63l-0.13 0c0,0 -0.6,-3.13 -1.14,-4.81l-4.58 -14.28 -11.8 0 13.19 30.42 -0.6 1.44c-1.09,2.65 -3.32,3.14 -5,3.14 -1.51,0 -3.2,-1.15 -3.2,-1.15z"/>
    <polygon id="1" class="fil26" points="1003.95,2469 1014.37,2469 1014.37,2446.71 1023.59,2446.71 1023.59,2469 1034.01,2469 1034.01,2437.98 1003.95,2437.98 "/>
    <path id="2" class="fil26" d="M1039.25 2453.46c0,8.55 6.2,16.26 17.28,16.26 5.18,0 10.24,-1.98 13.31,-5.12l-3.79 -7.28c-2.23,1.92 -5.48,3.73 -8.49,3.73 -5.24,0 -7.77,-4.04 -7.77,-7.71 0,-3.67 2.47,-7.41 7.41,-7.41 2.71,0 5.48,1.27 7.28,3.01l4.4 -6.98c-3.07,-3.32 -8.01,-4.7 -12.35,-4.7 -11.14,0 -17.28,7.89 -17.28,16.2z"/>
    <polygon id="3" class="fil26" points="1074.3,2469 1084.18,2469 1084.18,2459.12 1074.3,2459.12 "/>
    <polygon id="4" class="fil26" points="1091.28,2469 1101.16,2469 1101.16,2459.12 1091.28,2459.12 "/>
   </g>
  </g>
 </g>
</svg>
