<?xml version="1.0" encoding="UTF-8"?>
<!DOCTYPE svg PUBLIC "-//W3C//DTD SVG 1.1//EN" "http://www.w3.org/Graphics/SVG/1.1/DTD/svg11.dtd">
<!-- Creator: CorelDRAW 2017 -->
<svg xmlns="http://www.w3.org/2000/svg" xml:space="preserve" width="8.3765mm" height="7.7916mm" version="1.1" style="shape-rendering:geometricPrecision; text-rendering:geometricPrecision; image-rendering:optimizeQuality; fill-rule:evenodd; clip-rule:evenodd"
viewBox="0 0 836.54 778.13"
 xmlns:xlink="http://www.w3.org/1999/xlink">
 <defs>
  <style type="text/css">
   <![CDATA[
    .fil0 {fill:#444447;fill-rule:nonzero}
    .fil1 {fill:url(#id0)}
   ]]>
  </style>
  <linearGradient id="id0" gradientUnits="userSpaceOnUse" x1="396.3" y1="374.51" x2="520.7" y2="0.49">
   <stop offset="0" style="stop-opacity:1; stop-color:#DA251D"/>
   <stop offset="1" style="stop-opacity:1; stop-color:#E77817"/>
  </linearGradient>
 </defs>
 <g id="_x0020_1">
  <metadata id="CorelCorpID_0Corel-Layer"/>
  <g id="_666087168">
   <g>
    <path class="fil0" d="M-0 529.25c0,50.3 22.73,96.73 85.12,96.73 71.59,0 138.82,-61.43 176.55,-113.18 3.86,-4.35 5.8,-9.67 5.8,-13.05 0,-9.2 -7.74,-14.51 -17.42,-14.51 -10.16,0 -23.22,5.8 -26.6,13.54 -35.78,42.56 -83.67,87.05 -121.88,87.05 -29.5,0 -52.72,-24.18 -52.72,-64.81 0,-59 49.81,-157.18 116.08,-157.18 15.48,0 25.64,12.57 25.64,24.67 0,11.6 -9.19,22.73 -31.92,22.73 -9.68,0 -26.6,13.54 -26.6,22.73 0,8.23 5.8,14.03 17.42,14.03 37.24,0 90.44,-23.22 90.44,-73.52 0,-29.98 -31.92,-51.27 -64.81,-51.27 -104.46,0 -175.08,140.26 -175.08,206.05zm232.9 43.52c0,31.44 10.16,41.59 34.33,41.59 49.33,0 85.13,-51.75 117.53,-97.7 6.76,-9.19 13.05,-19.34 19.82,-27.56 2.91,59.97 18.39,126.23 58.04,126.23 14.51,0 26.59,-16.44 26.59,-23.22 0,-7.73 -4.35,-14.02 -16.44,-14.02 -0.48,0 -3.86,0.49 -4.83,0.49 -0.98,0.48 -1.46,0.48 -1.46,0.48 -5.8,0 -14.02,-96.25 -14.02,-133 0,-16.93 1.94,-29.02 3.86,-35.31 0.97,-3.39 1.94,-6.77 1.94,-8.7 0,-9.2 -7.26,-13.54 -15.96,-13.54 -11.6,0 -29.99,8.22 -33.38,16.93 -16.44,43.52 -108.34,171.69 -127.68,171.69 -0.49,0 -0.49,-7.25 -0.49,-15.47 0,-28.05 6.77,-31.93 11.6,-35.31 5.8,-2.9 11.14,-7.74 11.14,-15.96 0,-8.23 -5.81,-14.99 -15.97,-14.99 -34.82,0 -54.65,47.4 -54.65,77.38zm244.99 -19.82c0,29.99 14.03,60.46 49.33,60.46 48.37,0 100.12,-74 100.12,-137.36 0,-21.29 -11.13,-68.69 -37.72,-68.69 -12.09,0 -29.99,14.99 -29.99,21.77 0,0.97 0,2.9 0.96,4.83 -1.45,-0.48 -2.9,-0.48 -4.35,-0.48 -38.2,0 -78.35,67.71 -78.35,119.46zm101.57 -65.78c0,33.38 -23.7,89.48 -43.52,89.48 -6.77,0 -10.16,-18.87 -10.16,-32.41 0,-42.56 22.25,-76.9 29.01,-76.9 6.29,0 14.03,-3.39 19.83,-8.23 2.42,6.78 4.83,16.45 4.83,28.05zm38.47 87.06c0,30.47 12.58,44.98 19.35,44.98 11.6,0 27.08,-10.16 27.56,-20.31 3.87,-14.03 7.74,-26.6 12.09,-41.12 4.34,-13.54 8.22,-28.05 12.09,-42.07 6.28,-0.97 14.02,-1.46 22.25,-1.46 8.22,0 25.63,0 40.14,-1.94 -1.94,13.06 -3.39,25.65 -3.39,37.74 0,33.86 11.13,62.39 42.56,62.39 13.54,0 33.38,-15.48 33.38,-23.7 0,-6.78 -3.87,-12.09 -15.48,-12.09 -6.77,0 -9.67,-14.51 -9.67,-31.93 0,-43.04 17.41,-108.34 29.01,-118.01 6.29,-5.31 8.71,-9.19 8.71,-14.99 0,-9.19 -9.19,-14.02 -19.35,-14.02 -22.72,0 -42.55,33.37 -57.06,80.28 -20.79,0 -36.76,0.48 -63.36,2.43 2.42,-14.03 4.35,-27.57 4.35,-42.56 0,-11.61 -7.26,-15.49 -17.9,-15.49 -24.19,0 -39.18,24.68 -39.18,34.34 0,5.8 2.42,8.71 6.77,10.65 -0.97,13.54 -2.43,19.34 -4.35,30.95 -21.77,21.28 -28.54,49.81 -28.54,75.94z"/>
    <path class="fil1" d="M552.03 317.76c11.62,22.69 33.18,-2.4 34.21,-21.78 1.07,-19.73 -10.72,-38.02 -21.77,-46.66 -15.09,-11.78 -42.44,-18.16 -66.1,-9.33 -26.66,9.95 -49.45,39.33 -50.54,69.99 -0.73,20.52 8.45,36.96 16.33,49.76 2.34,3.8 7.24,8.17 5.44,14.78 -3.88,4.11 -11.94,2.34 -18.67,2.34 -7.07,0 -14.47,0 -20.99,0 -11.21,0 -32.91,3.46 -38.11,-2.34 -4.51,-5.03 -0.62,-16.4 -3.11,-23.33 -3.19,-8.88 -13.28,-15.79 -23.33,-15.55 -18.46,0.44 -24.27,16.75 -24.89,39.66 -16.49,5.1 -43.57,4.62 -55.99,0 -15.51,-5.78 -28.1,-23.81 -35.77,-39.66 -8.31,-17.16 -13.96,-37.19 -15.56,-59.1 -4.84,-66.66 18.29,-124.04 60.66,-149.31 6.12,-3.66 20.73,-11.75 25.67,-9.33 4.7,2.31 6.08,19.18 8.55,25.66 12.45,32.7 46.24,62.31 86.33,68.44 39.31,6.01 73.23,-11.04 91.76,-29.55 5.84,-5.85 13.26,-13.79 12.44,-19.44 -0.58,-3.94 -3.65,-8.77 -8.56,-9.34 -8.23,-0.95 -19.85,15.04 -26.43,19.44 -21.92,14.66 -59.25,21.03 -89.43,8.56 -29.89,-12.35 -53.94,-41.59 -49.77,-89.43 2.4,-27.42 18.1,-49.01 35.77,-62.21 21.93,-16.38 55.31,-27.47 87.87,-29.56 76.63,-4.9 128.4,29.4 164.09,67.66 35.5,38.07 65.82,93.24 60.65,170.3 -2.87,42.84 -21.51,79.51 -45.88,103.43 -23.31,22.87 -72.64,44.85 -122.09,34.21 -12.67,-2.73 -25.21,-9.82 -33.45,-17.89 -31.63,-31.01 -21.1,-91.56 21.78,-100.32 23.55,-4.81 51.95,10.77 48.99,38.1 -1.04,9.6 -8.14,14.37 -10.11,21.78zm21.78 -175.76l0 0c26.53,0.6 24.11,-45.97 -4.67,-38.1 -19.67,5.38 -15.95,37.64 4.67,38.1z"/>
   </g>
   <path class="fil0" d="M172.32 731.14c5.24,-2.08 8.41,-6.13 8.41,-11.77 0,-8.61 -7.42,-13.45 -19.78,-13.45l-24.34 0 0 52.43 25.23 0c13.95,0 20.68,-5.34 20.68,-14.44 0,-6.63 -3.27,-10.99 -10.2,-12.76zm-26.41 -17.91l14.25 0c7.22,0 11.08,2.48 11.08,7.52 0,5.04 -3.85,7.71 -11.08,7.71l-14.25 0 0 -15.23zm15.24 37.79l-15.24 0 0 -15.73 15.83 0c7.82,0 11.29,2.57 11.29,8.01 0,5.34 -4.05,7.72 -11.87,7.72zm83.59 -18.6c0,-16.13 -10.79,-27.01 -25.92,-27.01 -15.14,0 -26.32,11.19 -26.32,26.71 0,15.63 11.28,26.8 28.19,26.8 8.71,0 15.93,-2.97 20.67,-8.5l-5.24 -6.14c-3.85,4.25 -9,6.33 -15.13,6.33 -10.39,0 -17.81,-6.13 -18.99,-15.33l42.53 0c0.1,-0.89 0.2,-2.08 0.2,-2.87zm-25.92 -18.99c9.2,0 15.83,6.23 16.82,15.03l-33.64 0c0.99,-8.9 7.72,-15.03 16.82,-15.03zm67.37 -5.74c-8.81,0 -16.23,3.85 -20.67,10.59 0.99,-13.65 7.41,-20.38 21.07,-23.35l22.06 -4.74 -1.39 -8.71 -23.94 5.34c-18.11,3.95 -26.91,15.73 -26.91,37.39 0,22.06 10,34.92 27.9,34.92 16.02,0 27.1,-10.49 27.1,-25.92 0,-15.04 -10.39,-25.53 -25.23,-25.53zm-1.69 43.53c-10.09,0 -17.31,-7.32 -17.31,-17.71 0,-10.4 7.02,-17.32 17.31,-17.32 10.3,0 17.22,6.92 17.22,17.32 0,10.39 -7.02,17.71 -17.22,17.71zm37.9 -15.93l26.6 0 0 -8.21 -26.6 0 0 8.21zm65.29 23.64c9.4,0 17.21,-3.95 21.36,-11.28l-7.22 -4.55c-3.37,5.15 -8.51,7.52 -14.24,7.52 -10.3,0 -18.01,-7.12 -18.01,-18.5 0,-11.18 7.71,-18.41 18.01,-18.41 5.73,0 10.88,2.38 14.24,7.52l7.22 -4.64c-4.15,-7.32 -11.96,-11.19 -21.36,-11.19 -16.13,0 -27.7,11.09 -27.7,26.71 0,15.63 11.57,26.8 27.7,26.8zm72.01 -53.02l-47.88 0 0 8.31 19.18 0 0 44.12 9.5 0 0 -44.12 19.19 0 0 -8.31zm47.49 0l-18.11 41.94 -18.31 -41.94 -9.89 0 23.15 52.33 -1.69 3.67c-2.57,6.03 -5.44,8.11 -9.99,8.11 -3.57,0 -6.83,-1.39 -9.4,-3.85l-4.05 7.12c3.26,3.17 8.41,4.84 13.45,4.84 8.01,0 14.04,-3.47 18.7,-14.54l25.43 -57.67 -9.3 0zm61.53 44.12l0 -44.12 -40.65 0 -0.79 17.71c-0.69,13.25 -2,26.02 -9.51,26.41l-2.78 0 0 20.47 9.01 0 0 -12.16 43.82 0 0 12.16 8.91 0 0 -20.47 -8.02 0zm-32.71 -25.73l0.49 -10.09 22.72 0 0 35.81 -29.36 0c4.76,-4.15 5.75,-14.84 6.15,-25.73zm53.09 34.03l8.71 0 32.06 -38.19 0 38.19 9.5 0 0 -52.43 -8.61 0 -32.16 38.19 0 -38.19 -9.5 0 0 52.43zm87.75 -52.43c-14.05,0 -23.05,6.23 -23.05,18.4 0,8.31 4.45,13.75 12.26,16.13l-12.76 17.91 10.2 0 11.47 -16.62 1.09 0 15.23 0 0 16.62 8.51 0 0 -52.43 -22.95 0zm-13.35 18.7c0,-7.32 4.94,-10.39 13.65,-10.39l14.14 0 0 20.67 -14.54 0c-8.8,0 -13.25,-3.27 -13.25,-10.29z"/>
  </g>
 </g>
</svg>
